<svg width="49" height="48" viewBox="0 0 49 48" fill="none" xmlns="http://www.w3.org/2000/svg">
<g clip-path="url(#clip0_667_560)">
<path d="M48.7598 24C48.7598 10.7452 38.0146 0 24.7598 0C11.5049 0 0.759766 10.7452 0.759766 24C0.759766 35.9789 9.53617 45.908 21.0098 47.7084V30.9375H14.916V24H21.0098V18.7125C21.0098 12.6975 24.5929 9.375 30.0749 9.375C32.6999 9.375 35.4473 9.84375 35.4473 9.84375V15.75H32.421C29.4398 15.75 28.5098 17.6002 28.5098 19.5V24H35.166L34.102 30.9375H28.5098V47.7084C39.9834 45.908 48.7598 35.9789 48.7598 24Z" fill="#1877F2"/>
<path d="M34.102 30.9375L35.166 24H28.5098V19.5C28.5098 17.602 29.4398 15.75 32.421 15.75H35.4473V9.84375C35.4473 9.84375 32.7009 9.375 30.0749 9.375C24.5929 9.375 21.0098 12.6975 21.0098 18.7125V24H14.916V30.9375H21.0098V47.7084C23.4947 48.0972 26.0249 48.0972 28.5098 47.7084V30.9375H34.102Z" fill="white"/>
</g>
<defs>
<clipPath id="clip0_667_560">
<rect width="48" height="48" fill="white" transform="translate(0.759766)"/>
</clipPath>
</defs>
</svg>
