<svg width="48" height="48" viewBox="0 0 48 48" fill="none" xmlns="http://www.w3.org/2000/svg">
<path d="M0 23.2745V24.5658C0.332929 36.9145 10.2805 46.8318 22.1146 47.7599H25.7566C37.6614 46.8217 47.4374 36.8136 47.7603 24.5457V23.2745C47.4374 10.7846 37.3184 0.655447 25.1311 0.0299435C12.0157 -0.635915 0.363196 9.88667 0 23.2745Z" fill="url(#paint0_radial_667_561)"/>
<path d="M23.9914 11.9958C27.7949 11.9958 28.2489 12.0059 29.7521 12.0765C31.1444 12.137 31.891 12.3792 32.3954 12.5709C33.0613 12.8332 33.5354 13.1459 34.0298 13.6504C34.5241 14.1548 34.8369 14.6391 35.0992 15.315C35.2909 15.8295 35.5229 16.5963 35.5935 18.0087C35.6642 19.5422 35.6742 19.9962 35.6742 23.8703C35.6742 27.7444 35.6642 28.1984 35.5935 29.7319C35.533 31.1443 35.301 31.911 35.0992 32.4256C34.8369 33.1015 34.5342 33.5858 34.0298 34.0902C33.5354 34.5947 33.0613 34.9074 32.3954 35.1697C31.891 35.3715 31.1343 35.6035 29.7521 35.6641C28.2489 35.7347 27.7949 35.7448 23.9914 35.7448C20.188 35.7448 19.734 35.7347 18.2308 35.6641C16.8385 35.6035 16.0919 35.3614 15.5875 35.1697C14.9216 34.9074 14.4475 34.5947 13.9531 34.0902C13.4588 33.5858 13.146 33.1015 12.8837 32.4256C12.692 31.911 12.46 31.1443 12.3894 29.7319C12.3187 28.1984 12.3086 27.7444 12.3086 23.8703C12.3086 19.9962 12.3187 19.5422 12.3894 18.0087C12.4499 16.5963 12.6819 15.8295 12.8837 15.315C13.146 14.6391 13.4487 14.1548 13.9531 13.6504C14.4475 13.1459 14.9216 12.8332 15.5875 12.5709C16.0919 12.3691 16.8486 12.137 18.2308 12.0765C19.734 12.016 20.188 11.9958 23.9914 11.9958ZM23.9914 9.38281C20.1174 9.38281 19.6331 9.40299 18.1198 9.47361C16.6065 9.54423 15.5673 9.78636 14.6593 10.1496C13.7211 10.5228 12.9241 11.0172 12.1371 11.8243C11.3401 12.6314 10.8559 13.4385 10.4927 14.3969C10.1396 15.315 9.89742 16.3743 9.8268 17.9179C9.75618 19.4615 9.74609 19.9558 9.74609 23.8905C9.74609 27.8251 9.76627 28.3194 9.8268 29.863C9.89742 31.4066 10.1396 32.4558 10.4927 33.384C10.8559 34.3323 11.3401 35.1495 12.1371 35.9566C12.9341 36.7637 13.7211 37.2581 14.6593 37.6314C15.5673 37.9946 16.6065 38.2367 18.1198 38.3073C19.6432 38.3779 20.1274 38.3981 23.9914 38.3981C27.8554 38.3981 28.3498 38.3779 29.8631 38.3073C31.3764 38.2367 32.4156 37.9946 33.3236 37.6314C34.2618 37.2581 35.0588 36.7637 35.8458 35.9566C36.6428 35.1495 37.127 34.3424 37.4902 33.384C37.8433 32.4659 38.0855 31.4066 38.1561 29.863C38.2267 28.3194 38.2368 27.8251 38.2368 23.8905C38.2368 19.9558 38.2166 19.4615 38.1561 17.9179C38.0855 16.3743 37.8433 15.3251 37.4902 14.3969C37.127 13.4486 36.6428 12.6314 35.8458 11.8243C35.0487 11.0172 34.2618 10.5228 33.3236 10.1496C32.4156 9.78636 31.3764 9.54423 29.8631 9.47361C28.3498 9.40299 27.8554 9.38281 23.9914 9.38281Z" fill="white"/>
<path d="M23.9911 16.4341C19.9455 16.4341 16.6768 19.7634 16.6768 23.8796C16.6768 27.9958 19.9556 31.3251 23.9911 31.3251C28.0266 31.3251 31.3055 27.9958 31.3055 23.8796C31.3055 19.7634 28.0266 16.4341 23.9911 16.4341ZM23.9911 28.7121C21.368 28.7121 19.2393 26.5531 19.2393 23.8796C19.2393 21.2061 21.368 19.0471 23.9911 19.0471C26.6142 19.0471 28.7429 21.2061 28.7429 23.8796C28.7429 26.5531 26.6142 28.7121 23.9911 28.7121Z" fill="white"/>
<path d="M31.5986 17.8773C32.5402 17.8773 33.3036 17.1004 33.3036 16.142C33.3036 15.1836 32.5402 14.4067 31.5986 14.4067C30.6569 14.4067 29.8936 15.1836 29.8936 16.142C29.8936 17.1004 30.6569 17.8773 31.5986 17.8773Z" fill="white"/>
<defs>
<radialGradient id="paint0_radial_667_561" cx="0" cy="0" r="1" gradientUnits="userSpaceOnUse" gradientTransform="translate(0.8723 43.3798) rotate(-86.9999) scale(69.0501 58.6919)">
<stop stop-color="#FED576"/>
<stop offset="0.2634" stop-color="#F47133"/>
<stop offset="0.6091" stop-color="#BC3081"/>
<stop offset="1" stop-color="#4C63D2"/>
</radialGradient>
</defs>
</svg>
