<svg width="279" height="42" viewBox="0 0 279 42" fill="none" xmlns="http://www.w3.org/2000/svg">
<path d="M30.5824 21.946H0.0356445V41.8552H30.5824V21.946Z" fill="#3EB497"/>
<path d="M66.1346 21.946H35.5879V41.8552H66.1346V21.946Z" fill="#B9B9BA"/>
<path fill-rule="evenodd" clip-rule="evenodd" d="M33.0673 0L0 12.3224V16.8336H66.1346V12.3224L33.0673 0Z" fill="#DC0761"/>
<path fill-rule="evenodd" clip-rule="evenodd" d="M88.9141 16.8336H110.123V21.9585H102.222V41.5757H96.7805V21.9585H88.9141V16.8336Z" fill="#DC0761"/>
<path fill-rule="evenodd" clip-rule="evenodd" d="M113.103 16.8336H131.888V21.9585H118.546V26.5535H131.012V31.5021H118.546V36.4502H132.204V41.5757H113.103V16.8336Z" fill="#DC0761"/>
<path fill-rule="evenodd" clip-rule="evenodd" d="M136.69 41.5757V16.8336H146.872C148.862 16.8336 150.572 17.0811 152 17.5755C153.427 18.0717 154.51 18.7429 155.248 19.591C155.985 20.4398 156.512 21.3336 156.827 22.2767C157.144 23.2197 157.302 24.2441 157.302 25.3522C157.302 27.709 156.459 29.7062 154.774 31.3436C153.088 32.9811 150.454 33.8002 146.872 33.8002H142.133V41.5763H136.69V41.5757ZM142.133 21.9585V28.6741H146.803C150.034 28.6741 151.649 27.5541 151.649 25.316C151.649 23.0773 150.104 21.9591 147.013 21.9591L142.133 21.9585Z" fill="#DC0761"/>
<path fill-rule="evenodd" clip-rule="evenodd" d="M160.717 41.5757V16.8336H170.9C172.889 16.8336 174.599 17.0811 176.026 17.5755C177.454 18.0717 178.538 18.7429 179.276 19.591C180.012 20.4398 180.538 21.3336 180.854 22.2767C181.171 23.2197 181.329 24.2441 181.329 25.3522C181.329 27.709 180.486 29.7062 178.801 31.3436C177.114 32.9811 174.481 33.8002 170.9 33.8002H166.16V41.5763H160.717V41.5757ZM166.16 21.9585V28.6741H170.83C174.059 28.6741 175.674 27.5541 175.674 25.316C175.674 23.0773 174.13 21.9591 171.039 21.9591L166.16 21.9585Z" fill="#DC0761"/>
<path fill-rule="evenodd" clip-rule="evenodd" d="M191.288 16.8336H195.325L206.107 41.5757H200.417L198.416 36.9813H188.128L186.126 41.5757H180.508L191.288 16.8336ZM190.023 32.3502H196.415L193.255 24.9635L190.023 32.3502Z" fill="#DC0761"/>
<path fill-rule="evenodd" clip-rule="evenodd" d="M206.894 36.4501L211.213 33.5158C212.876 35.7539 215.347 36.8745 218.622 36.8745C221.783 36.8745 223.362 35.9795 223.362 34.1889C223.363 32.4208 221.654 31.5371 218.235 31.5371H214.373V26.411H218.025C219.453 26.411 220.565 26.205 221.36 25.7937C222.156 25.3812 222.554 24.821 222.554 24.1135C222.554 23.1948 222.12 22.5348 221.255 22.1348C220.388 21.7336 219.382 21.5341 218.234 21.5341C215.661 21.5341 213.577 22.441 211.985 24.2554L207.771 21.3917C210.182 18.0704 213.775 16.4086 218.551 16.4086C221.618 16.4086 223.964 17.0437 225.591 18.3167C227.218 19.5898 228.032 21.3567 228.032 23.6185C228.032 25.7635 227.189 27.3303 225.504 28.3197C227.728 29.2153 228.84 31.0658 228.84 33.8696C228.84 36.3908 227.914 38.3772 226.064 39.8254C224.215 41.2753 221.782 42 218.762 42C213.332 42 209.376 40.1512 206.894 36.4501Z" fill="#DC0761"/>
<path fill-rule="evenodd" clip-rule="evenodd" d="M232.938 41.5757V16.8336H238.381V31.9965L250.283 16.8336H254.813V41.5757H249.37V26.4828L237.397 41.5757H232.938Z" fill="#DC0761"/>
<path fill-rule="evenodd" clip-rule="evenodd" d="M274.834 17.8984H275.437L276.377 19.3133L277.274 17.8984H277.86V20.8552H277.21V19.0812L276.445 20.2593H276.273L275.484 19.0676V20.8546H274.834V17.8984ZM271.82 17.8984H274.356V18.5091H273.41V20.8552H272.76V18.5091H271.82V17.8984ZM257.792 16.8336H279V21.9591H271.101V41.5757H265.658V21.9585H257.792V16.8336Z" fill="#DC0761"/>
</svg>
