<svg width="57" height="57" viewBox="0 0 57 57" fill="none" xmlns="http://www.w3.org/2000/svg">
<path d="M27.9641 0.25505L27.9642 0.255049C43.9902 -0.0443001 57.0401 13.0098 56.7451 29.0359C56.4631 44.1414 44.1414 56.4631 29.0359 56.7451C13.0098 57.0401 -0.044301 43.9859 0.255049 27.9598C0.537029 12.8587 12.8631 0.532691 27.9641 0.25505Z" fill="white" stroke="#B9B9BA" stroke-width="0.5"/>
<path d="M43.3398 29.2463C43.3398 29.2463 46.1672 17.6478 39.4314 13.3061C32.6999 8.96432 25.5089 7.97079 20.5982 10.4699C13.7879 13.9363 10.9912 23.3114 13.1708 28.4979L31.2468 23.9592L43.3398 29.2463Z" fill="#040744"/>
<path d="M32.3625 42.8581H23.9941V51.2134H32.3625V42.8581Z" fill="#FFC0BB"/>
<path d="M23.9941 47.8695V42.8625H32.3625V47.1255C30.5593 48.0883 27.8938 48.6442 23.9941 47.8695Z" fill="#F99893"/>
<path d="M10.7984 27.9026C11.6738 27.4737 12.6848 27.5481 13.604 28.0121C13.2888 19.7662 20.0247 12.8334 28.5069 13.1267C36.989 12.8334 43.7249 19.7662 43.4097 28.0121C44.3289 27.5481 45.3399 27.4693 46.2152 27.9026C47.8915 28.7299 48.4124 31.0933 47.3795 33.181C46.3465 35.2731 44.1494 36.2973 42.4775 35.4745C42.2455 35.3607 42.0354 35.2119 41.8516 35.0455C40.8931 41.8602 35.1945 46.9722 28.5156 46.876C21.8323 46.9722 16.1381 41.8602 15.1796 35.0455C14.9914 35.2162 14.7857 35.3607 14.5537 35.4745C12.8774 36.3017 10.6847 35.2731 9.65173 33.181C8.60131 31.0933 9.12214 28.7299 10.7984 27.9026Z" fill="#FFC0BB"/>
<path d="M23.0273 37.641C23.395 39.2954 25.2858 40.5909 27.6054 40.6653C29.9251 40.7353 31.8947 39.5536 32.363 37.9299L23.0273 37.641Z" fill="white"/>
<path d="M43.405 28.0164C43.405 28.0164 32.4543 24.6988 27.6573 19.1578C27.6573 19.1578 29.0141 25.8324 30.0252 26.896C29.7057 27.1104 19.0876 21.9458 17.6433 17.1795C16.199 12.4132 28.5021 10.7019 28.5021 10.7019C28.5021 10.7019 32.7169 12.4964 32.9314 12.6014C33.1458 12.7065 37.098 13.1704 37.5488 14.1771C38.1397 15.4901 40.9321 15.6039 40.9321 15.6039L42.6959 19.2716L43.9302 23.1276L43.405 28.0164Z" fill="#040744"/>
<path d="M52.3779 12.9297C49.9576 13.9013 47.1652 14.3522 44.2678 13.4637C37.8777 11.4985 35.3435 12.2601 34.4945 12.7459C33.9824 13.0347 33.374 13.1485 32.8181 12.9647C32.1879 12.7546 31.6014 12.1856 31.7852 10.7457C31.7852 10.7457 31.5314 4.67074 36.7397 1.21309C43.2305 3.16513 48.7452 7.3712 52.3779 12.9297Z" fill="#040744"/>
<path d="M38.6251 12.527C38.8176 12.2775 38.7564 11.9186 38.4938 11.7479C37.4258 11.0477 34.6816 9.46763 31.3815 9.29693C31.0707 9.27943 30.8125 9.5289 30.8125 9.83966C30.8125 10.1285 31.0401 10.3649 31.329 10.378C34.3446 10.5356 36.9269 12.0237 37.8985 12.6539C38.1349 12.8115 38.45 12.7546 38.6251 12.527Z" fill="#FEB546"/>
</svg>
