<svg width="14" height="14" viewBox="0 0 14 14" fill="none" xmlns="http://www.w3.org/2000/svg">
<path d="M4.50224 6.77605C5.08572 7.96893 6.05266 8.93147 7.24818 9.50951C7.33565 9.55096 7.4324 9.56892 7.52892 9.56162C7.62544 9.55432 7.71839 9.52201 7.79863 9.46787L9.55895 8.29405C9.63681 8.24213 9.72638 8.21046 9.81956 8.2019C9.91275 8.19334 10.0066 8.20816 10.0926 8.24502L13.3858 9.65641C13.4977 9.70393 13.5911 9.78652 13.652 9.89174C13.7128 9.99695 13.7378 10.1191 13.7232 10.2398C13.6191 11.0543 13.2217 11.8029 12.6054 12.3455C11.9891 12.8881 11.1961 13.1874 10.375 13.1875C7.83887 13.1875 5.40661 12.18 3.61329 10.3867C1.81998 8.59337 0.8125 6.16111 0.8125 3.62498C0.812543 2.80385 1.11189 2.01089 1.65448 1.39458C2.19707 0.778264 2.94571 0.380856 3.76021 0.276766C3.88088 0.262164 4.00302 0.287172 4.10824 0.348023C4.21346 0.408873 4.29605 0.502271 4.34357 0.614142L5.75619 3.91024C5.79272 3.9955 5.80761 4.08847 5.79952 4.18087C5.79144 4.27327 5.76062 4.36224 5.70983 4.43986L4.54008 6.22718C4.48684 6.30758 4.45537 6.40042 4.44874 6.49662C4.4421 6.59283 4.46054 6.6891 4.50224 6.77605Z" fill="#DC0761"/>
</svg>
