<svg width="229" height="217" viewBox="0 0 229 217" fill="none" xmlns="http://www.w3.org/2000/svg">
<path d="M211.666 195.139C216.09 195.139 220.097 195.132 224.105 195.139C227.558 195.147 228.151 195.71 228.159 199.062C228.174 203.648 228.174 208.234 228.159 212.812C228.151 216.357 227.612 216.873 223.943 216.873C191.566 216.873 159.189 216.873 126.812 216.873C86.0345 216.873 45.2491 216.873 4.47152 216.873C0.456183 216.873 0.0322994 216.449 0.0245924 212.465C0.0168854 207.879 0.0862482 203.293 0.00147145 198.716C-0.0447704 196.165 0.995672 195.055 3.57751 195.109C7.7701 195.201 11.955 195.132 16.5252 195.132C16.5252 193.937 16.5252 192.92 16.5252 191.903C16.5252 129.63 16.5329 67.3655 16.5329 5.09316C16.5406 0.291709 16.5792 0.253174 21.3036 0.253174C83.0981 0.253174 144.885 0.253174 206.679 0.253174C211.65 0.253174 211.666 0.268588 211.666 5.16252C211.666 67.3347 211.666 129.507 211.674 191.687C211.666 192.72 211.666 193.752 211.666 195.139ZM21.0723 4.89277C21.0723 68.4445 21.0723 131.711 21.0723 194.955C83.2137 194.955 145.147 194.955 207.134 194.955C207.134 131.503 207.134 68.2441 207.134 4.89277C145.062 4.89277 83.1906 4.89277 21.0723 4.89277ZM4.75668 212.118C77.8034 212.118 150.611 212.118 223.35 212.118C223.35 207.871 223.35 203.825 223.35 199.856C150.372 199.856 77.6339 199.856 4.75668 199.856C4.75668 203.979 4.75668 207.956 4.75668 212.118Z" fill="#EEEEEE" fill-opacity="0.9"/>
<path d="M194.927 100.275C194.927 126.155 194.927 152.035 194.927 177.915C194.927 182.346 194.772 182.508 190.487 182.508C139.583 182.508 88.6858 182.508 37.7813 182.508C33.4576 182.508 33.2881 182.338 33.2881 177.961C33.2881 126.008 33.2881 74.0554 33.2881 22.1027C33.2881 17.6557 33.5039 17.4399 38.0202 17.4399C88.7321 17.4399 139.444 17.4399 190.148 17.4399C194.757 17.4399 194.934 17.6249 194.934 22.3416C194.927 48.3218 194.927 74.2943 194.927 100.275ZM190.264 74.5024C165.494 74.5024 141.016 74.5024 116.593 74.5024C116.593 91.6735 116.593 108.621 116.593 125.761C125.556 125.761 134.327 125.815 143.097 125.684C143.96 125.669 145.062 124.713 145.617 123.896C150.873 116.166 156.037 108.367 161.232 100.598C163.135 97.7466 164.962 94.818 167.035 92.0974C167.574 91.3961 168.939 91.057 169.917 91.0801C170.38 91.0878 171.197 92.3518 171.166 93.0145C171.127 93.87 170.48 94.7486 169.964 95.5347C163.744 104.922 157.494 114.286 151.259 123.657C150.873 124.243 150.557 124.875 150.195 125.523C153.895 126.424 156.607 125.684 158.079 122.147C158.334 121.546 158.704 120.76 159.22 120.552C160.214 120.151 161.347 120.105 162.418 119.912C162.573 120.929 162.973 121.985 162.796 122.941C162.627 123.835 161.84 124.605 161.239 125.577C171.189 125.577 180.684 125.577 190.264 125.577C190.264 108.475 190.264 91.5888 190.264 74.5024ZM38.0741 74.4176C38.0741 91.5811 38.0741 108.598 38.0741 125.615C62.6979 125.615 87.1213 125.615 111.568 125.615C111.568 108.452 111.568 91.4346 111.568 74.2866C100.824 74.2866 90.3197 74.3328 79.8228 74.2404C77.9731 74.2249 76.8942 74.803 75.8845 76.3444C69.8192 85.6082 63.669 94.8103 57.4957 103.997C56.6325 105.284 55.7077 107.111 53.6885 105.646C51.808 104.29 52.9023 102.826 53.8272 101.438C56.5323 97.3921 59.2375 93.3537 61.9349 89.2998C65.1796 84.4213 68.4088 79.5273 71.6997 74.5563C67.7614 73.5313 65.3491 74.6951 63.4994 78.0399C61.434 81.7855 58.8059 85.2228 56.4321 88.7988C55.5535 90.1167 54.621 91.5579 52.8022 90.4096C50.86 89.1765 51.7771 87.6505 52.7328 86.2401C53.4264 85.2151 54.1355 84.1978 54.8214 83.165C56.6942 80.352 58.5593 77.5312 60.6247 74.4099C52.7713 74.4176 45.4805 74.4176 38.0741 74.4176ZM190.248 22.2183C165.509 22.2183 141.024 22.2183 116.531 22.2183C116.531 38.1563 116.531 53.8862 116.531 69.7703C141.155 69.7703 165.648 69.7703 190.248 69.7703C190.248 53.8708 190.248 38.1409 190.248 22.2183ZM38.051 130.347C38.051 146.378 38.051 162.077 38.051 177.73C62.721 177.73 87.1984 177.73 111.614 177.73C111.614 161.815 111.614 146.108 111.614 130.347C87.0057 130.347 62.59 130.347 38.051 130.347ZM38.051 22.1489C38.051 38.1486 38.051 53.9479 38.051 69.9476C45.8813 69.9476 53.5035 69.8859 61.1334 69.9938C62.9754 70.0169 64.0466 69.4466 65.064 67.8975C71.4453 58.1559 77.9346 48.4914 84.3931 38.8037C85.079 37.7709 85.6108 36.5301 86.5356 35.7903C87.2446 35.2276 88.7552 34.8423 89.3795 35.2276C89.996 35.6053 90.1116 37.0619 90.127 38.0407C90.1348 38.6033 89.5182 39.1967 89.1483 39.7516C83.0058 48.9615 76.8556 58.1636 70.7209 67.3734C70.2276 68.1133 69.8115 68.9148 69.349 69.7087C73.3104 70.7491 75.9 69.516 77.4105 66.0401C77.6726 65.439 78.0271 64.6683 78.5435 64.4371C79.4452 64.0286 80.8247 63.5045 81.4105 63.9053C82.0424 64.3292 82.3276 65.8243 82.158 66.7415C81.9731 67.7588 81.1022 68.6451 80.4394 69.7318C91.0288 69.7318 101.341 69.7318 111.653 69.7318C111.653 53.7398 111.653 38.0099 111.653 22.1489C87.0982 22.1489 62.6825 22.1489 38.051 22.1489ZM116.508 177.745C141.224 177.745 165.709 177.745 190.179 177.745C190.179 161.838 190.179 146.123 190.179 130.247C180.26 130.247 170.526 130.316 160.8 130.193C158.727 130.162 157.532 130.833 156.43 132.513C150.357 141.761 144.168 150.932 138.08 160.165C137.116 161.63 136.014 162.678 134.388 161.614C132.67 160.489 133.463 158.971 134.365 157.622C136.061 155.087 137.756 152.543 139.452 150C143.768 143.518 148.084 137.045 152.415 130.548C148.615 129.492 146.134 130.47 144.284 133.923C142.357 137.522 139.837 140.821 137.517 144.197C136.546 145.607 135.706 147.881 133.402 146.285C131.352 144.867 132.816 143.272 133.733 141.846C134.404 140.806 135.128 139.796 135.814 138.763C137.61 136.043 139.39 133.314 141.286 130.417C132.762 130.417 124.693 130.417 116.516 130.417C116.508 146.247 116.508 161.884 116.508 177.745Z" fill="#EEEEEE" fill-opacity="0.9"/>
</svg>
