<svg width="15" height="27" viewBox="0 0 15 27" fill="none" xmlns="http://www.w3.org/2000/svg">
<path d="M0.411329 1.26141C0.675046 1.00929 1.03253 0.867676 1.40524 0.867676C1.77796 0.867676 2.13544 1.00929 2.39916 1.26141L14.5887 12.9293C14.8521 13.1817 15 13.5239 15 13.8807C15 14.2375 14.8521 14.5797 14.5887 14.8321L2.39916 26.5C2.13254 26.7378 1.77989 26.8673 1.41552 26.8611C1.05114 26.855 0.703488 26.7137 0.445796 26.467C0.188105 26.2203 0.0404959 25.8876 0.0340662 25.5388C0.0276375 25.19 0.162889 24.8524 0.411329 24.5972L11.6069 13.8807L0.411329 3.16417C0.147942 2.91174 0 2.56956 0 2.21279C0 1.85602 0.147942 1.51384 0.411329 1.26141Z" fill="#DC0761"/>
</svg>
