<svg width="15" height="15" viewBox="0 0 15 15" fill="none" xmlns="http://www.w3.org/2000/svg">
<path d="M13.9667 0C13.9782 0 13.9885 0 14 0C14.0077 0.0128205 14.0141 0.0294872 14.0244 0.0397436C14.3359 0.351282 14.6474 0.664103 14.959 0.974359C14.9692 0.984615 14.9859 0.991026 14.9987 0.998718C14.9987 1.01026 14.9987 1.02051 14.9987 1.03205C14.9756 1.05 14.95 1.06538 14.9295 1.08718C12.8167 3.20128 10.7026 5.3141 8.58974 7.42821C8.56667 7.45128 8.54487 7.47564 8.50898 7.5141C8.54103 7.53718 8.56795 7.55128 8.58974 7.57308C10.7038 9.6859 12.8167 11.8 14.9308 13.9128C14.9513 13.9333 14.9769 13.9487 15 13.9667C15 13.9782 15 13.9885 15 14C14.9872 14.0077 14.9705 14.0141 14.9603 14.0244C14.6487 14.3359 14.3359 14.6474 14.0256 14.959C14.0154 14.9692 14.009 14.9859 14.0013 14.9987C13.9897 14.9987 13.9795 14.9987 13.9679 14.9987C13.95 14.9756 13.9346 14.95 13.9128 14.9295C11.7987 12.8167 9.6859 10.7026 7.5718 8.58974C7.54872 8.56667 7.52436 8.54487 7.4859 8.50898C7.46282 8.54103 7.44872 8.56795 7.42692 8.58974C5.3141 10.7038 3.20128 12.8167 1.08718 14.9308C1.06667 14.9513 1.05128 14.9769 1.03333 15C1.0218 15 1.01154 15 1 15C0.992308 14.9872 0.985897 14.9705 0.975641 14.9603C0.664103 14.6487 0.352564 14.3359 0.0410256 14.0256C0.0307692 14.0154 0.0141026 14.009 0.00128205 14.0013C0.00128205 13.9897 0.00128205 13.9795 0.00128205 13.9679C0.024359 13.95 0.05 13.9346 0.0705128 13.9128C2.18333 11.7987 4.29744 9.6859 6.41026 7.5718C6.43333 7.54872 6.45513 7.52436 6.49103 7.4859C6.45897 7.46282 6.43205 7.44872 6.41026 7.42692C4.29615 5.3141 2.18333 3.20128 0.0692308 1.08718C0.048718 1.06667 0.0230769 1.05128 0 1.03333C0 1.0218 0 1.01154 0 1C0.0128205 0.992308 0.0294872 0.985897 0.0397436 0.975641C0.351282 0.664103 0.664103 0.352564 0.974359 0.0410256C0.985897 0.0294872 0.992308 0.0128205 1 0C1.01154 0 1.0218 0 1.03333 0C1.05128 0.0230769 1.06667 0.048718 1.08846 0.0692308C3.20128 2.18333 5.3141 4.29744 7.42821 6.41026C7.45128 6.43333 7.47564 6.45513 7.51026 6.48846C7.53462 6.45769 7.55128 6.43205 7.57308 6.41154C9.6859 4.29744 11.8 2.18462 13.9128 0.0705128C13.9333 0.048718 13.9487 0.0230769 13.9667 0Z" fill="#333333"/>
</svg>
