<svg width="18" height="18" viewBox="0 0 18 18" fill="none" xmlns="http://www.w3.org/2000/svg">
<path d="M17.8091 16.872L13.6334 12.696H13.5884C14.8755 11.1784 15.5259 9.22183 15.4036 7.23563C15.2813 5.24943 14.3958 3.38745 12.9322 2.03919C11.4687 0.690928 9.54052 -0.039169 7.55107 0.00162163C5.56162 0.0424122 3.66499 0.85093 2.25794 2.25805C0.850891 3.66516 0.0424102 5.56187 0.00162155 7.55142C-0.0391671 9.54097 0.690895 11.4692 2.03909 12.9328C3.38729 14.3964 5.24918 15.282 7.23529 15.4043C9.2214 15.5266 11.1779 14.8762 12.6954 13.589C12.6954 13.589 12.6954 13.6212 12.6954 13.634L16.8712 17.81C16.9309 17.8702 17.002 17.918 17.0803 17.9506C17.1585 17.9832 17.2425 18 17.3273 18C17.4121 18 17.4961 17.9832 17.5744 17.9506C17.6527 17.918 17.7237 17.8702 17.7834 17.81C17.8493 17.7516 17.9025 17.6804 17.9397 17.6007C17.9769 17.521 17.9974 17.4345 17.9998 17.3465C18.0022 17.2586 17.9865 17.1711 17.9537 17.0895C17.9209 17.0078 17.8717 16.9338 17.8091 16.872ZM7.71665 14.1159C6.44606 14.1159 5.204 13.7391 4.14754 13.0331C3.09107 12.3272 2.26766 11.3238 1.78143 10.1499C1.29519 8.97595 1.16797 7.68419 1.41585 6.43795C1.66373 5.19171 2.27558 4.04697 3.17403 3.14848C4.07247 2.24999 5.21716 1.63811 6.46335 1.39022C7.70953 1.14233 9.00123 1.26955 10.1751 1.75581C11.349 2.24207 12.3523 3.06552 13.0582 4.12203C13.7641 5.17854 14.1409 6.42066 14.1409 7.69131C14.1409 8.535 13.9747 9.37042 13.6519 10.1499C13.329 10.9293 12.8558 11.6376 12.2593 12.2341C11.6627 12.8307 10.9545 13.304 10.1751 13.6268C9.39568 13.9497 8.5603 14.1159 7.71665 14.1159Z" fill="#333333"/>
</svg>
