<svg width="64" height="64" viewBox="0 0 64 64" fill="none" xmlns="http://www.w3.org/2000/svg">
<circle cx="32" cy="32" r="31.5" fill="#A4A4A4" fill-opacity="0.87" stroke="#707070"/>
<path d="M24.4113 19.3938C24.675 19.1416 25.0325 19 25.4052 19C25.778 19 26.1354 19.1416 26.3992 19.3938L38.5887 31.0646C38.8521 31.3171 39 31.6593 39 32.0162C39 32.3731 38.8521 32.7153 38.5887 32.9678L26.3992 44.6386C26.1325 44.8764 25.7799 45.0059 25.4155 44.9998C25.0511 44.9936 24.7035 44.8523 24.4458 44.6056C24.1881 44.3589 24.0405 44.026 24.0341 43.6771C24.0276 43.3283 24.1629 42.9906 24.4113 42.7353L35.6069 32.0162L24.4113 21.2971C24.1479 21.0446 24 20.7023 24 20.3454C24 19.9886 24.1479 19.6463 24.4113 19.3938Z" fill="white"/>
</svg>
