<svg width="264" height="100" viewBox="0 0 264 100" fill="none" xmlns="http://www.w3.org/2000/svg">
<path fill-rule="evenodd" clip-rule="evenodd" d="M1 16C1 7.71573 7.71573 1 16 1L247.501 1C255.785 1 262.501 7.71574 262.501 16V73.7286C262.501 82.0129 255.785 88.7286 247.501 88.7286H224.73L219.246 97.6755L212.897 88.7286L16 88.7286C7.71573 88.7286 1 82.0129 1 73.7286L1 16Z" fill="white"/>
<path d="M224.73 88.7286L223.877 88.2061L224.17 87.7286H224.73V88.7286ZM219.246 97.6755L220.099 98.1981L219.307 99.4895L218.43 98.2542L219.246 97.6755ZM212.897 88.7286V87.7286H213.413L213.712 88.1499L212.897 88.7286ZM16 2C8.26802 2 2 8.26801 2 16H0C0 7.16344 7.16345 0 16 0V2ZM247.501 2L16 2V0L247.501 0V2ZM261.501 16C261.501 8.26803 255.233 2 247.501 2V0C256.338 0 263.501 7.16346 263.501 16H261.501ZM261.501 73.7286V16H263.501V73.7286H261.501ZM247.501 87.7286C255.233 87.7286 261.501 81.4606 261.501 73.7286H263.501C263.501 82.5652 256.338 89.7286 247.501 89.7286V87.7286ZM224.73 87.7286H247.501V89.7286H224.73V87.7286ZM225.582 89.2512L220.099 98.1981L218.393 97.1529L223.877 88.2061L225.582 89.2512ZM218.43 98.2542L212.081 89.3074L213.712 88.1499L220.061 97.0967L218.43 98.2542ZM16 87.7286L212.897 87.7286V89.7286L16 89.7286V87.7286ZM2 73.7286C2 81.4606 8.26802 87.7286 16 87.7286V89.7286C7.16344 89.7286 0 82.5652 0 73.7286H2ZM2 16L2 73.7286H0L0 16H2Z" fill="#3EB497"/>
</svg>
