<svg width="49" height="48" viewBox="0 0 49 48" fill="none" xmlns="http://www.w3.org/2000/svg">
<circle cx="24.2598" cy="23.4521" r="20.5" fill="white"/>
<path fill-rule="evenodd" clip-rule="evenodd" d="M27.5348 16.7865C28.4693 16.9856 29.1855 17.3407 29.7975 17.9137C30.585 18.6574 31.0166 19.5574 31.2064 20.8504C31.3346 21.6934 31.2821 22.0249 30.9833 22.2997C30.7035 22.5555 30.1864 22.5649 29.8733 22.3234C29.6456 22.1528 29.5744 21.9727 29.5223 21.4849C29.4608 20.8358 29.3468 20.3813 29.1521 19.9598C28.7348 19.0646 27.9994 18.6004 26.7566 18.4489C26.1731 18.3776 25.9976 18.3116 25.8079 18.0889C25.4614 17.6768 25.5945 17.0089 26.0734 16.7625C26.2538 16.6725 26.3295 16.6631 26.7281 16.6868C26.9753 16.701 27.3405 16.7437 27.5348 16.7865ZM26.5245 13.2101C29.4041 13.6316 31.6335 14.9674 33.0949 17.1368C33.9158 18.3589 34.428 19.794 34.6035 21.3334C34.665 21.897 34.665 22.9249 34.5986 23.0955C34.5368 23.2564 34.3376 23.4743 34.167 23.5643C33.9821 23.6591 33.5884 23.6494 33.3701 23.5358C33.0049 23.3509 32.8958 23.0572 32.8958 22.2615C32.8958 21.0349 32.5778 19.7415 32.0276 18.7372C31.4014 17.5909 30.4905 16.6436 29.3805 15.9851C28.4269 15.4166 27.018 14.9951 25.7325 14.8909C25.2675 14.853 25.0114 14.7581 24.8359 14.5545C24.5655 14.2466 24.537 13.8296 24.7646 13.4839C25.011 13.1014 25.3905 13.0395 26.5245 13.2101ZM15.3525 10.2878C15.5186 10.3448 15.7748 10.4771 15.9218 10.572C16.8229 11.169 19.3324 14.3756 20.1533 15.9765C20.6228 16.8908 20.7795 17.568 20.6325 18.0701C20.4806 18.6101 20.2294 18.8944 19.1048 19.7989C18.654 20.1634 18.2318 20.5376 18.1654 20.6374C17.9948 20.8838 17.8571 21.3668 17.8571 21.708C17.862 22.4989 18.3743 23.9344 19.0478 25.038C19.5694 25.8952 20.5039 26.994 21.429 27.8374C22.5154 28.8323 23.4735 29.5095 24.5554 30.0446C25.9455 30.7361 26.7945 30.9113 27.4159 30.6225C27.5723 30.5513 27.7384 30.4567 27.7905 30.414C27.8378 30.3712 28.2034 29.9261 28.6016 29.4334C29.37 28.467 29.5455 28.3106 30.0724 28.1306C30.7414 27.9034 31.4243 27.9649 32.1124 28.3155C32.6344 28.5855 33.7729 29.2913 34.5079 29.8027C35.4758 30.48 37.5439 32.1664 37.824 32.5028C38.3171 33.1091 38.4026 33.8857 38.0708 34.7434C37.7198 35.6479 36.3536 37.3436 35.4 38.0685C34.5368 38.7221 33.9248 38.973 33.1181 39.0109C32.454 39.0439 32.1788 38.9872 31.3298 38.6366C24.6698 35.8942 19.3519 31.8019 15.1298 26.1791C12.924 23.2425 11.2444 20.1967 10.0965 17.0374C9.42752 15.195 9.39452 14.3944 9.94464 13.4516C10.182 13.0537 11.1923 12.0686 11.9276 11.5192C13.1516 10.6099 13.716 10.2735 14.1668 10.1786C14.475 10.1123 15.0113 10.1644 15.3525 10.2878ZM26.1971 9.77625C27.8291 9.97987 29.1476 10.3729 30.5948 11.079C32.0179 11.7754 32.9288 12.4339 34.1336 13.632C35.2628 14.7641 35.889 15.6214 36.5531 16.9523C37.4783 18.8089 38.0048 21.0165 38.0948 23.4461C38.1281 24.2749 38.1041 24.4598 37.9144 24.6968C37.554 25.1561 36.7616 25.0804 36.4913 24.564C36.4058 24.3934 36.3821 24.2467 36.3536 23.5834C36.306 22.5649 36.2351 21.9067 36.0926 21.1204C35.5328 18.0368 34.0526 15.5738 31.6901 13.8068C29.7214 12.3289 27.6863 11.6089 25.0204 11.4525C24.1189 11.4004 23.9625 11.3674 23.7585 11.211C23.379 10.9125 23.3599 10.2116 23.7251 9.88462C23.9483 9.681 24.1046 9.6525 24.8779 9.67612C25.2818 9.69075 25.8746 9.73837 26.1971 9.77625ZM24.7598 0C38.0145 0 48.7598 10.7452 48.7598 24C48.7598 37.2547 38.0145 48 24.7598 48C11.505 48 0.759766 37.2547 0.759766 24C0.759766 10.7452 11.505 0 24.7598 0Z" fill="#7F4DA0"/>
</svg>
