<svg width="49" height="48" viewBox="0 0 49 48" fill="none" xmlns="http://www.w3.org/2000/svg">
<path d="M24.7598 48C38.0146 48 48.7598 37.2548 48.7598 24C48.7598 10.7452 38.0146 0 24.7598 0C11.5049 0 0.759766 10.7452 0.759766 24C0.759766 37.2548 11.5049 48 24.7598 48Z" fill="#4D76A1"/>
<path fill-rule="evenodd" clip-rule="evenodd" d="M23.8531 34.5259H25.7368C25.7368 34.5259 26.3058 34.4635 26.5963 34.1503C26.8637 33.8628 26.8551 33.3229 26.8551 33.3229C26.8551 33.3229 26.8183 30.7953 27.9914 30.4231C29.1478 30.0565 30.6328 32.866 32.2067 33.9462C33.3969 34.7638 34.3014 34.5846 34.3014 34.5846L38.5099 34.5259C38.5099 34.5259 40.7114 34.3903 39.6675 32.6594C39.582 32.5177 39.0596 31.3789 36.5384 29.0387C33.8996 26.5894 34.253 26.9856 37.4317 22.7488C39.3676 20.1686 40.1416 18.5934 39.8999 17.9187C39.6693 17.2761 38.2455 17.446 38.2455 17.446L33.5069 17.4755C33.5069 17.4755 33.1557 17.4276 32.8951 17.5833C32.6406 17.736 32.4767 18.092 32.4767 18.092C32.4767 18.092 31.7267 20.0886 30.7265 21.7867C28.6165 25.3697 27.7728 25.5588 27.428 25.3363C26.6258 24.8178 26.826 23.2533 26.826 22.1418C26.826 18.6696 27.3527 17.2218 25.8005 16.847C25.2854 16.7225 24.9064 16.6404 23.5891 16.6271C21.8984 16.6096 20.4673 16.6323 19.657 17.0293C19.1179 17.2933 18.7021 17.8815 18.9554 17.9153C19.2685 17.9572 19.9779 18.1065 20.3539 18.6186C20.8395 19.2792 20.8224 20.7629 20.8224 20.7629C20.8224 20.7629 21.1013 24.8503 20.1708 25.3581C19.5321 25.7064 18.6559 24.9953 16.7747 21.7447C15.8109 20.0797 15.0831 18.2392 15.0831 18.2392C15.0831 18.2392 14.9428 17.8952 14.6925 17.7112C14.3888 17.4883 13.9644 17.4173 13.9644 17.4173L9.46155 17.4468C9.46155 17.4468 8.78559 17.4657 8.53745 17.7596C8.31669 18.021 8.51991 18.5617 8.51991 18.5617C8.51991 18.5617 12.0452 26.8093 16.0368 30.9656C19.6968 34.7762 23.8531 34.5259 23.8531 34.5259Z" fill="white"/>
</svg>
